<svg width="403" height="293" viewBox="0 0 403 293" fill="none" xmlns="http://www.w3.org/2000/svg">
<path d="M403 257.484H0V257.68H403V257.484Z" fill="#EBEBEB"/>
<path d="M191.022 222.408H35.3915C34.1723 222.406 33.0037 221.932 32.1424 221.09C31.281 220.248 30.7973 219.107 30.7973 217.918V4.45131C30.8079 3.26851 31.2963 2.13756 32.1565 1.30411C33.0167 0.470658 34.1792 0.0020262 35.3915 0H191.022C192.243 0 193.413 0.473119 194.276 1.31528C195.139 2.15743 195.624 3.29964 195.624 4.49063V217.918C195.624 219.109 195.139 220.251 194.276 221.093C193.413 221.935 192.243 222.408 191.022 222.408ZM35.3915 0.157291C34.2257 0.159374 33.1084 0.612696 32.2849 1.41776C31.4613 2.22281 30.9988 3.31383 30.9988 4.45131V217.918C30.9988 219.055 31.4613 220.146 32.2849 220.951C33.1084 221.756 34.2257 222.21 35.3915 222.212H191.022C192.189 222.21 193.307 221.756 194.131 220.952C194.956 220.147 195.421 219.056 195.423 217.918V4.45131C195.421 3.3131 194.956 2.22211 194.131 1.41728C193.307 0.612441 192.189 0.15937 191.022 0.157291H35.3915Z" fill="#EBEBEB"/>
<path d="M365.368 222.408H209.729C208.509 222.406 207.34 221.932 206.477 221.091C205.615 220.249 205.129 219.108 205.127 217.918V4.45131C205.14 3.26779 205.63 2.13685 206.491 1.30361C207.353 0.470383 208.516 0.0020041 209.729 0H365.368C366.579 0.00409308 367.739 0.473639 368.598 1.30687C369.456 2.14009 369.943 3.26987 369.954 4.45131V217.918C369.954 219.106 369.471 220.246 368.612 221.087C367.752 221.929 366.586 222.404 365.368 222.408ZM209.729 0.157291C208.563 0.15937 207.445 0.612441 206.62 1.41728C205.795 2.22211 205.331 3.3131 205.328 4.45131V217.918C205.331 219.056 205.795 220.147 206.62 220.952C207.445 221.756 208.563 222.21 209.729 222.212H365.368C366.534 222.21 367.652 221.756 368.477 220.952C369.302 220.147 369.766 219.056 369.769 217.918V4.45131C369.766 3.3131 369.302 2.22211 368.477 1.41728C367.652 0.612441 366.534 0.15937 365.368 0.157291H209.729Z" fill="#EBEBEB"/>
<path d="M62.2877 264.971H41.3317V265.168H62.2877V264.971Z" fill="#EBEBEB"/>
<path d="M153.285 262.84H116.991V263.036H153.285V262.84Z" fill="#EBEBEB"/>
<path d="M112.09 272.277H63.0937V272.474H112.09V272.277Z" fill="#EBEBEB"/>
<path d="M361.668 270.956H346.169V271.152H361.668V270.956Z" fill="#EBEBEB"/>
<path d="M338.987 270.956H294.424V271.152H338.987V270.956Z" fill="#EBEBEB"/>
<path d="M267.205 267.637H207.182V267.834H267.205V267.637Z" fill="#EBEBEB"/>
<path d="M153.809 126.178L143.613 257.515H241.945L252.141 126.178H153.809ZM215.637 218.979C215.161 224.222 212.712 229.106 208.761 232.689C204.81 236.273 199.639 238.3 194.246 238.381C191.692 238.42 189.159 237.933 186.812 236.952C184.464 235.971 182.355 234.518 180.622 232.688C178.888 230.858 177.57 228.692 176.752 226.331C175.935 223.97 175.637 221.468 175.877 218.987L179.464 172.822C179.94 167.581 182.388 162.698 186.337 159.115C190.286 155.532 195.455 153.503 200.847 153.421C203.402 153.381 205.937 153.867 208.287 154.848C210.636 155.829 212.748 157.282 214.483 159.113C216.217 160.944 217.537 163.111 218.356 165.474C219.174 167.836 219.473 170.34 219.232 172.822L215.637 218.979Z" fill="#E6E6E6"/>
<path d="M273.137 257.484H129.766L130.596 248.864H273.959L273.137 257.484Z" fill="#E6E6E6"/>
<path d="M328.219 208.732H340.938C341.108 208.732 341.277 208.698 341.433 208.633C341.59 208.567 341.731 208.471 341.848 208.35C341.965 208.229 342.055 208.086 342.114 207.93C342.172 207.774 342.197 207.608 342.187 207.442L342.139 206.561C342.118 206.217 341.965 205.893 341.709 205.655C341.453 205.417 341.114 205.283 340.761 205.279H328.042C327.872 205.278 327.703 205.311 327.546 205.375C327.389 205.44 327.247 205.535 327.13 205.655C327.012 205.775 326.921 205.918 326.861 206.073C326.802 206.229 326.776 206.395 326.785 206.561L326.833 207.442C326.853 207.788 327.008 208.114 327.265 208.354C327.523 208.593 327.864 208.728 328.219 208.732Z" fill="#E0E0E0"/>
<path d="M306.997 208.732H319.692C319.863 208.733 320.032 208.7 320.189 208.635C320.346 208.57 320.487 208.474 320.605 208.353C320.722 208.232 320.812 208.088 320.87 207.932C320.928 207.775 320.952 207.608 320.941 207.442L320.893 206.561C320.872 206.217 320.719 205.893 320.463 205.655C320.207 205.417 319.868 205.283 319.514 205.279H306.82C306.65 205.278 306.481 205.311 306.324 205.375C306.167 205.44 306.025 205.535 305.908 205.655C305.79 205.775 305.699 205.918 305.639 206.073C305.58 206.229 305.554 206.395 305.563 206.561L305.611 207.442C305.633 207.788 305.788 208.113 306.045 208.352C306.302 208.591 306.642 208.727 306.997 208.732Z" fill="#E0E0E0"/>
<path d="M350.795 207.757H54.4856C52.8202 207.74 51.2235 207.107 50.0178 205.986C48.8121 204.865 48.0871 203.339 47.9892 201.717L39.0668 28.0527C39.0169 27.2731 39.1323 26.4919 39.4059 25.7579C39.6794 25.0238 40.1053 24.3527 40.6568 23.7866C41.2082 23.2204 41.8735 22.7714 42.6109 22.4675C43.3484 22.1637 44.1421 22.0115 44.9426 22.0206H341.252C342.917 22.0357 344.514 22.667 345.72 23.7867C346.925 24.9065 347.651 26.4312 347.749 28.0527L356.671 201.717C356.721 202.497 356.606 203.278 356.332 204.013C356.059 204.747 355.633 205.419 355.082 205.985C354.53 206.552 353.865 207.002 353.128 207.307C352.39 207.611 351.596 207.765 350.795 207.757Z" fill="#E0E0E0"/>
<path d="M354.422 207.757H58.1207C56.4495 207.746 54.8449 207.116 53.6314 205.995C52.4179 204.873 51.6861 203.344 51.584 201.717L42.718 28.0527C42.6682 27.2745 42.7831 26.4946 43.0557 25.7616C43.3283 25.0286 43.7527 24.3583 44.3024 23.7924C44.8522 23.2265 45.5155 22.7771 46.251 22.4723C46.9865 22.1674 47.7785 22.0137 48.5776 22.0206H344.879C346.55 22.0295 348.154 22.6576 349.368 23.7776C350.582 24.8976 351.314 26.4258 351.416 28.0527L360.282 201.717C360.332 202.495 360.217 203.276 359.944 204.009C359.672 204.742 359.248 205.413 358.698 205.98C358.148 206.546 357.485 206.996 356.75 207.302C356.014 207.608 355.222 207.762 354.422 207.757Z" fill="#E6E6E6"/>
<path d="M59.8536 195.637L51.584 34.1398C51.5542 33.6514 51.6275 33.1622 51.7995 32.7026C51.9716 32.243 52.2385 31.8228 52.5839 31.468C52.9293 31.1133 53.3458 30.8316 53.8074 30.6405C54.269 30.4494 54.766 30.3529 55.2674 30.357H339.076C340.12 30.3653 341.122 30.7609 341.878 31.4634C342.633 32.166 343.087 33.1228 343.146 34.1398L351.416 195.637C351.447 196.125 351.375 196.615 351.204 197.074C351.033 197.534 350.766 197.954 350.422 198.309C350.077 198.664 349.661 198.945 349.2 199.137C348.738 199.328 348.242 199.424 347.741 199.42H63.9239C62.8805 199.41 61.88 199.014 61.1245 198.312C60.369 197.61 59.9148 196.654 59.8536 195.637Z" fill="#F5F5F5"/>
<path d="M69.042 38.6147C69.0707 39.0447 69.0085 39.4759 68.8594 39.8815C68.7103 40.287 68.4774 40.6584 68.1751 40.9726C67.8728 41.2867 67.5076 41.5369 67.1021 41.7076C66.6966 41.8783 66.2596 41.9659 65.818 41.965C64.8945 41.9547 64.0094 41.6033 63.3409 40.9816C62.6724 40.36 62.2701 39.5142 62.2151 38.6147C62.1876 38.1854 62.2506 37.7551 62.4002 37.3504C62.5498 36.9458 62.7829 36.5754 63.0851 36.2621C63.3873 35.9488 63.7521 35.6994 64.157 35.5291C64.5619 35.3589 64.9983 35.2715 65.4391 35.2723C66.3624 35.2788 67.2485 35.6279 67.9177 36.2486C68.5868 36.8694 68.9888 37.7153 69.042 38.6147Z" fill="white"/>
<path d="M84.5736 38.6147C84.6023 39.0447 84.5401 39.4759 84.391 39.8815C84.2419 40.287 84.009 40.6584 83.7067 40.9726C83.4044 41.2867 83.0392 41.5369 82.6337 41.7076C82.2283 41.8783 81.7912 41.9659 81.3496 41.965C80.4261 41.9547 79.541 41.6033 78.8725 40.9816C78.204 40.36 77.8017 39.5142 77.7468 38.6147C77.7192 38.1854 77.7822 37.7551 77.9318 37.3504C78.0815 36.9458 78.3146 36.5754 78.6167 36.2621C78.9189 35.9488 79.2837 35.6994 79.6886 35.5291C80.0935 35.3589 80.5299 35.2715 80.9708 35.2723C81.894 35.2788 82.7802 35.6279 83.4493 36.2486C84.1184 36.8694 84.5204 37.7153 84.5736 38.6147Z" fill="white"/>
<path d="M100.113 38.6147C100.142 39.0447 100.08 39.4759 99.9307 39.8815C99.7816 40.287 99.5487 40.6584 99.2464 40.9726C98.9441 41.2867 98.5789 41.5369 98.1734 41.7076C97.7679 41.8783 97.3309 41.9659 96.8892 41.965C95.9661 41.9564 95.0808 41.6054 94.4132 40.9832C93.7456 40.3609 93.3456 39.5142 93.2945 38.6147C93.2669 38.1854 93.3299 37.7551 93.4796 37.3504C93.6292 36.9458 93.8623 36.5754 94.1645 36.2621C94.4666 35.9488 94.8314 35.6994 95.2363 35.5291C95.6412 35.3589 96.0776 35.2715 96.5185 35.2723C97.4398 35.2826 98.3228 35.6332 98.9899 36.2534C99.6569 36.8736 100.058 37.7173 100.113 38.6147Z" fill="white"/>
<g opacity="0.6">
<path d="M89.3693 199.42H130.274L167.672 30.357H126.768L89.3693 199.42Z" fill="white"/>
<path d="M265.4 199.42H275.757L313.155 30.357H302.798L265.4 199.42Z" fill="white"/>
<path d="M139.365 199.42H197.397L234.796 30.357H176.764L139.365 199.42Z" fill="white"/>
</g>
<path d="M201.5 293C287.808 293 357.775 289.014 357.775 284.097C357.775 279.181 287.808 275.195 201.5 275.195C115.192 275.195 45.2247 279.181 45.2247 284.097C45.2247 289.014 115.192 293 201.5 293Z" fill="#F5F5F5"/>
<path d="M304.754 168.682H304.463C282.992 166.967 268.193 149.02 267.597 148.297C267.047 147.563 266.81 146.651 266.935 145.75C267.06 144.85 267.537 144.032 268.267 143.467C268.996 142.902 269.922 142.636 270.849 142.722C271.776 142.809 272.632 143.243 273.239 143.932C273.408 144.144 286.054 159.354 303.569 161.525C309.211 156.02 314.047 141.486 313.507 137.09C313.507 137.043 313.507 137.003 313.507 136.964C313.394 135.548 313.12 130.672 314.546 127.802C315.016 127.064 315.75 126.522 316.605 126.281C317.461 126.039 318.377 126.115 319.179 126.494C319.98 126.874 320.609 127.529 320.944 128.334C321.279 129.139 321.297 130.036 320.994 130.853C320.64 131.577 320.471 134.18 320.64 136.359C321.446 143.594 314.998 161.855 306.938 167.966C306.31 168.431 305.542 168.683 304.754 168.682Z" fill="#263238"/>
<path d="M134.059 149.626C126.642 149.538 119.326 147.934 112.585 144.915C105.843 141.897 99.8248 137.533 94.9195 132.104C94.3655 131.502 94.042 130.731 94.0038 129.922C93.9656 129.114 94.2151 128.318 94.7099 127.668C100.529 120.032 110.83 101.998 112.442 96.1237C111.677 94.707 110.521 93.5274 109.105 92.7184C108.539 92.4608 108.051 92.0634 107.691 91.5654C107.33 91.0674 107.109 90.4862 107.05 89.8793L106.469 84.1225C106.413 83.2151 106.719 82.3217 107.324 81.6299C107.928 80.938 108.784 80.5016 109.711 80.412C110.638 80.3225 111.565 80.5868 112.296 81.1496C113.028 81.7124 113.508 82.5298 113.635 83.4304L114.038 87.4334C116.42 89.2188 118.307 91.5574 119.527 94.2362C119.768 94.797 119.857 95.4093 119.785 96.0136C119.043 102.25 108.67 120.315 102.286 129.446C117.189 143.94 135.002 142.619 135.784 142.548C136.723 142.484 137.65 142.782 138.367 143.377C139.084 143.972 139.534 144.818 139.62 145.732C139.707 146.647 139.423 147.558 138.829 148.271C138.236 148.984 137.38 149.442 136.445 149.547C136.235 149.563 135.405 149.626 134.059 149.626Z" fill="#263238"/>
<path d="M250.163 289.04H240.491C239.936 289.04 239.389 288.915 238.891 288.675C238.394 288.434 237.96 288.085 237.624 287.654C237.287 287.223 237.058 286.723 236.953 286.191C236.847 285.659 236.87 285.111 237.017 284.589C239.54 275.749 240.781 268.553 241.708 257.291C238.291 241.562 235.075 227.241 235.043 227.099C234.868 226.2 235.059 225.27 235.577 224.506C236.094 223.742 236.896 223.206 237.812 223.01C238.729 222.814 239.687 222.975 240.484 223.458C241.281 223.941 241.853 224.709 242.079 225.597C242.079 225.739 245.4 240.43 248.857 256.332C248.931 256.662 248.953 257.001 248.922 257.338C248.116 267.452 247.06 274.443 245.158 282.017H250.139C251.064 282.06 251.937 282.448 252.576 283.102C253.215 283.756 253.571 284.625 253.571 285.529C253.571 286.432 253.215 287.301 252.576 287.955C251.937 288.609 251.064 288.997 250.139 289.04H250.163Z" fill="#263238"/>
<path d="M175.568 289.04H170.119C169.604 289.042 169.095 288.935 168.626 288.728C168.157 288.52 167.739 288.217 167.401 287.838C167.063 287.459 166.813 287.013 166.667 286.531C166.522 286.049 166.484 285.542 166.557 285.045C167.484 278.596 172.199 266.854 177.277 255.05C179.074 239.478 180.541 226.108 180.557 225.951C180.597 225.482 180.733 225.026 180.956 224.609C181.18 224.193 181.487 223.824 181.86 223.526C182.232 223.227 182.662 223.004 183.124 222.871C183.587 222.737 184.072 222.695 184.551 222.748C185.03 222.801 185.493 222.947 185.913 223.177C186.333 223.408 186.702 223.718 186.997 224.09C187.292 224.462 187.507 224.888 187.631 225.343C187.754 225.798 187.782 226.272 187.714 226.737C187.714 226.871 186.199 240.547 184.369 256.347C184.332 256.678 184.245 257.001 184.111 257.307C180.541 265.667 176.462 275.513 174.601 282.033H175.568C176.055 282.01 176.541 282.084 176.998 282.251C177.455 282.417 177.872 282.672 178.225 283C178.578 283.329 178.858 283.723 179.05 284.161C179.242 284.598 179.341 285.069 179.341 285.544C179.341 286.02 179.242 286.491 179.05 286.928C178.858 287.365 178.578 287.76 178.225 288.088C177.872 288.416 177.455 288.671 176.998 288.838C176.541 289.004 176.055 289.078 175.568 289.056V289.04Z" fill="#263238"/>
<path d="M182.591 54.0606L140.631 95.0111C138.519 140.397 138.688 188.072 140.631 237.5H279.392C276.643 173.719 276.386 112.321 279.392 54.0606H182.591Z" fill="white"/>
<path d="M275.504 233.233H136.743C136.556 233.234 136.376 233.163 136.241 233.037C136.106 232.911 136.026 232.739 136.017 232.557C134.011 181.226 134.011 133.252 136.017 89.9973C136.028 89.8216 136.106 89.6561 136.235 89.5333L178.195 48.5828C178.262 48.5178 178.341 48.4663 178.428 48.4312C178.516 48.3961 178.609 48.3782 178.703 48.3783H275.504C275.602 48.3786 275.699 48.3982 275.789 48.436C275.879 48.4739 275.96 48.5292 276.028 48.5985C276.095 48.6672 276.147 48.7488 276.18 48.8381C276.214 48.9275 276.228 49.0227 276.221 49.1176C273.328 105.223 273.328 165.206 276.221 232.494C276.225 232.588 276.208 232.682 276.174 232.77C276.139 232.858 276.087 232.938 276.02 233.005C275.955 233.077 275.876 233.134 275.787 233.173C275.698 233.213 275.601 233.233 275.504 233.233ZM137.428 231.826H274.754C271.901 165.088 271.893 105.53 274.754 49.786H179.001L137.428 90.3354C135.453 133.307 135.453 180.903 137.428 231.826Z" fill="#263238"/>
<path d="M250.623 213.045H235.486C235.343 213.045 235.205 212.99 235.104 212.891C235.003 212.792 234.946 212.658 234.946 212.518C234.946 212.45 234.96 212.381 234.987 212.318C235.014 212.254 235.054 212.197 235.105 212.149C235.155 212.1 235.214 212.062 235.28 212.037C235.345 212.011 235.415 211.998 235.486 211.999H250.623C250.693 211.998 250.763 212.011 250.829 212.037C250.894 212.062 250.954 212.1 251.004 212.149C251.054 212.197 251.094 212.254 251.121 212.318C251.149 212.381 251.163 212.45 251.163 212.518C251.163 212.588 251.149 212.656 251.121 212.72C251.094 212.784 251.055 212.842 251.004 212.891C250.954 212.94 250.895 212.979 250.829 213.005C250.764 213.032 250.693 213.045 250.623 213.045Z" fill="#D87033"/>
<path d="M229.215 213.045H161.608C161.465 213.045 161.327 212.99 161.226 212.891C161.125 212.792 161.068 212.658 161.068 212.518C161.068 212.45 161.082 212.381 161.109 212.318C161.136 212.254 161.176 212.197 161.227 212.149C161.277 212.1 161.336 212.062 161.402 212.037C161.467 212.011 161.537 211.998 161.608 211.999H229.199C229.27 211.998 229.34 212.011 229.405 212.037C229.471 212.062 229.53 212.1 229.58 212.149C229.631 212.197 229.671 212.254 229.698 212.318C229.725 212.381 229.739 212.45 229.739 212.518C229.739 212.655 229.684 212.787 229.587 212.886C229.489 212.984 229.356 213.041 229.215 213.045Z" fill="#D87033"/>
<path d="M186.82 134.188C186.658 130.759 184.668 128.054 182.362 128.132C180.057 128.211 178.332 131.05 178.477 134.479C178.623 137.908 180.63 140.613 182.935 140.527C185.24 140.44 186.981 137.609 186.82 134.188Z" fill="#D87033"/>
<path d="M235.478 133.11C235.317 129.689 233.326 126.984 231.021 127.063C228.715 127.141 226.991 129.98 227.136 133.409C227.281 136.838 229.296 139.544 231.593 139.457C233.89 139.371 235.639 136.539 235.478 133.11Z" fill="#D87033"/>
<path d="M198.966 148.195C202.685 146.839 206.645 146.231 210.611 146.407C214.576 146.583 218.464 147.538 222.042 149.217C222.16 149.281 222.265 149.367 222.349 149.471C222.433 149.574 222.496 149.693 222.532 149.821C222.569 149.948 222.58 150.081 222.563 150.212C222.547 150.344 222.504 150.47 222.437 150.585C222.3 150.817 222.076 150.986 221.812 151.059C221.548 151.131 221.266 151.099 221.026 150.971C220.905 150.908 209.42 144.868 195.71 151.757C195.465 151.878 195.182 151.901 194.921 151.822C194.659 151.742 194.439 151.567 194.307 151.333C194.245 151.215 194.206 151.087 194.195 150.956C194.183 150.824 194.198 150.692 194.24 150.566C194.281 150.44 194.347 150.324 194.435 150.223C194.523 150.122 194.63 150.04 194.751 149.98C196.112 149.292 197.521 148.695 198.966 148.195Z" fill="#D87033"/>
<path d="M179.856 102.061C180.213 102.071 180.563 102.168 180.871 102.345C181.342 102.617 181.685 103.059 181.823 103.576C181.962 104.093 181.887 104.642 181.613 105.105C180.009 107.894 177.739 110.265 174.996 112.016C172.253 113.767 169.117 114.847 165.856 115.164C165.307 115.185 164.772 114.995 164.366 114.634C163.961 114.274 163.717 113.772 163.687 113.237C163.676 112.973 163.717 112.71 163.809 112.463C163.902 112.215 164.043 111.987 164.226 111.793C164.409 111.599 164.629 111.441 164.874 111.33C165.119 111.219 165.384 111.156 165.654 111.145C165.968 111.145 173.408 110.689 178.034 103.068C178.216 102.755 178.481 102.495 178.802 102.318C179.123 102.141 179.487 102.052 179.856 102.061Z" fill="#D87033"/>
<path d="M228.546 100.905C228.883 100.841 229.231 100.858 229.558 100.957C229.886 101.056 230.184 101.233 230.424 101.472C236.872 107.763 244.239 106.497 244.545 106.442C245.079 106.348 245.628 106.46 246.079 106.753C246.53 107.046 246.847 107.499 246.963 108.015C247.017 108.273 247.018 108.539 246.966 108.798C246.914 109.057 246.811 109.303 246.661 109.522C246.511 109.741 246.318 109.93 246.093 110.076C245.869 110.222 245.616 110.323 245.351 110.374C244.948 110.445 235.566 112.191 227.45 104.279C227.185 104.023 226.997 103.701 226.905 103.349C226.814 102.996 226.823 102.625 226.932 102.277C227.041 101.929 227.245 101.617 227.522 101.374C227.799 101.13 228.14 100.966 228.506 100.897L228.546 100.905Z" fill="#D87033"/>
<path opacity="0.2" d="M273.416 122.918L267.524 123.453C266.505 123.546 265.486 123.273 264.658 122.685C263.83 122.097 263.25 121.235 263.027 120.26L254.862 84.5708C254.626 83.5345 254.811 82.4494 255.378 81.5432C255.944 80.637 256.849 79.9801 257.901 79.7105L273.69 75.6681L273.416 122.918Z" fill="black"/>
<path opacity="0.2" d="M182.564 93.6857C178.461 82.7619 174.359 65.2791 178.687 49.0861L136.727 90.0366C148.599 93.9295 167.508 95.5889 182.564 93.6857Z" fill="black"/>
<path d="M178.703 90.0366C174.101 76.777 175.979 58.7516 178.703 49.0861L136.743 90.0366C149.445 92.2937 163.639 91.9319 178.703 90.0366Z" fill="white"/>
<path d="M155.966 92.2937C149.482 92.3407 143.008 91.8142 136.622 90.7208C136.492 90.7 136.371 90.6445 136.272 90.5605C136.173 90.4764 136.099 90.3671 136.06 90.2448C136.021 90.1225 136.017 89.9919 136.049 89.8677C136.082 89.7434 136.149 89.6304 136.243 89.5411L178.203 48.5906C178.315 48.4796 178.462 48.4081 178.62 48.3875C178.778 48.3669 178.939 48.3984 179.077 48.4769C179.215 48.5554 179.322 48.6765 179.381 48.821C179.44 48.9655 179.449 49.1252 179.404 49.2749C176.874 58.2718 174.77 76.486 179.404 89.8085C179.436 89.9075 179.447 90.0119 179.434 90.115C179.422 90.218 179.387 90.3173 179.332 90.4062C179.277 90.4945 179.201 90.5695 179.112 90.6253C179.023 90.6812 178.921 90.7165 178.816 90.7286C171.241 91.7263 163.609 92.2491 155.966 92.2937ZM138.234 89.5726C149.389 91.3736 162.341 91.3342 177.728 89.4467C173.932 77.6972 174.794 62.149 177.341 51.3825L138.234 89.5726Z" fill="#263238"/>
<path d="M322.889 149.854C322.623 149.854 322.366 149.768 322.156 149.61C321.946 149.452 321.795 149.231 321.728 148.981L306.946 94.0239C306.865 93.7225 306.909 93.4019 307.07 93.1328C307.231 92.8636 307.495 92.6679 307.804 92.5886C308.113 92.5093 308.442 92.5531 308.717 92.7101C308.993 92.8672 309.194 93.1248 309.275 93.4262L324.057 148.383C324.097 148.533 324.107 148.688 324.085 148.841C324.063 148.994 324.011 149.141 323.931 149.274C323.851 149.407 323.744 149.523 323.618 149.616C323.492 149.709 323.348 149.776 323.195 149.815C323.096 149.844 322.992 149.857 322.889 149.854Z" fill="#263238"/>
<path d="M337.673 50.9385L260.826 70.6099C258.57 71.1875 257.22 73.4403 257.812 75.6418L267.538 111.813C268.13 114.015 270.439 115.331 272.695 114.754L349.542 95.0824C351.798 94.5048 353.147 92.252 352.555 90.0506L342.83 53.8789C342.238 51.6774 339.929 50.361 337.673 50.9385Z" fill="#D87033"/>
<mask id="path-43-outside-1_1274_562" maskUnits="userSpaceOnUse" x="272.776" y="65.2518" width="69.1863" height="37.3665" fill="black">
<rect fill="white" x="272.776" y="65.2518" width="69.1863" height="37.3665"/>
<path d="M288.591 87.1315C288.988 88.6133 289.064 89.9656 288.818 91.1883C288.572 92.4111 288.061 93.4401 287.285 94.2755C286.509 95.1109 285.521 95.6892 284.323 96.0103C283.125 96.3313 281.981 96.3242 280.891 95.9887C279.801 95.6533 278.844 95.0176 278.02 94.0817C277.196 93.1457 276.585 91.9368 276.188 90.455C275.791 88.9732 275.715 87.6209 275.961 86.3982C276.207 85.1754 276.718 84.1464 277.494 83.311C278.27 82.4756 279.257 81.8973 280.456 81.5762C281.654 81.2552 282.798 81.2623 283.888 81.5978C284.978 81.9332 285.935 82.5689 286.759 83.5048C287.583 84.4408 288.194 85.6497 288.591 87.1315ZM286.945 87.5727C286.619 86.3561 286.14 85.3839 285.509 84.656C284.882 83.9269 284.166 83.4399 283.36 83.1951C282.559 82.949 281.733 82.9399 280.882 83.1678C280.031 83.3958 279.318 83.8172 278.743 84.4322C278.172 85.0459 277.795 85.8258 277.613 86.7718C277.434 87.7166 277.508 88.7973 277.834 90.0138C278.16 91.2304 278.637 92.2032 279.263 92.9323C279.895 93.6602 280.611 94.1472 281.412 94.3933C282.218 94.6381 283.046 94.6466 283.897 94.4187C284.747 94.1907 285.458 93.7699 286.029 93.1562C286.604 92.5412 286.981 91.7613 287.159 90.8165C287.342 89.8705 287.271 88.7892 286.945 87.5727ZM298.42 92.2624C297.469 92.5173 296.574 92.5145 295.734 92.2542C294.899 91.9926 294.172 91.5086 293.551 90.8024C292.935 90.0949 292.481 89.1969 292.19 88.1084C291.895 87.0108 291.838 85.9993 292.016 85.0741C292.199 84.1476 292.587 83.3623 293.179 82.7184C293.776 82.0732 294.55 81.6232 295.501 81.3683C296.452 81.1134 297.345 81.1167 298.18 81.3783C299.02 81.6387 299.748 82.1249 300.365 82.837C300.987 83.5478 301.445 84.452 301.739 85.5497C302.031 86.6382 302.084 87.6434 301.9 88.5653C301.72 89.486 301.332 90.2689 300.735 90.9141C300.143 91.5581 299.372 92.0075 298.42 92.2624ZM298.031 90.808C298.753 90.6144 299.298 90.2699 299.665 89.7744C300.033 89.2789 300.247 88.6993 300.31 88.0356C300.372 87.3718 300.309 86.6878 300.12 85.9835C299.931 85.2792 299.643 84.6529 299.256 84.1047C298.869 83.5564 298.392 83.1573 297.825 82.9073C297.258 82.6572 296.613 82.629 295.891 82.8227C295.168 83.0163 294.624 83.3631 294.258 83.8631C293.892 84.3632 293.678 84.9473 293.617 85.6157C293.556 86.284 293.62 86.9703 293.809 87.6746C293.997 88.379 294.285 89.0029 294.671 89.5466C295.056 90.0903 295.532 90.4848 296.098 90.7303C296.664 90.9757 297.308 91.0016 298.031 90.808ZM307.632 93.794L303.75 79.3051L305.314 78.886L305.763 80.5599L305.955 80.5084C306.025 80.2936 306.127 80.0162 306.261 79.6763C306.399 79.3306 306.637 78.9923 306.975 78.6616C307.316 78.3251 307.829 78.0649 308.515 77.8811C309.403 77.6434 310.244 77.6556 311.04 77.9179C311.836 78.1802 312.532 78.6675 313.13 79.3798C313.728 80.0922 314.175 81.0018 314.472 82.1086C314.771 83.2245 314.84 84.2427 314.68 85.1631C314.518 86.0789 314.161 86.8509 313.609 87.4793C313.056 88.1031 312.34 88.5326 311.462 88.7679C310.785 88.9492 310.213 88.9824 309.746 88.8674C309.278 88.7478 308.895 88.5733 308.598 88.344C308.3 88.1101 308.066 87.9131 307.896 87.7528L307.759 87.7896L309.251 93.3601L307.632 93.794ZM306.753 84.1473C306.967 84.9431 307.271 85.6139 307.668 86.1596C308.063 86.7008 308.53 87.0829 309.07 87.3058C309.609 87.5242 310.203 87.5463 310.853 87.3723C311.53 87.1909 312.047 86.8612 312.404 86.3832C312.764 85.8993 312.977 85.3226 313.043 84.6531C313.112 83.9777 313.046 83.265 312.845 82.515C312.647 81.7741 312.353 81.137 311.965 80.6037C311.581 80.0646 311.113 79.6825 310.563 79.4575C310.016 79.2267 309.399 79.2031 308.713 79.387C308.054 79.5634 307.546 79.8786 307.187 80.3326C306.827 80.782 306.612 81.3346 306.543 81.9904C306.472 82.6417 306.543 83.3606 306.753 84.1473ZM324.584 76.2519L323.24 77.0532C323.084 76.8353 322.886 76.6359 322.646 76.455C322.41 76.2683 322.121 76.14 321.778 76.0699C321.436 75.9999 321.029 76.028 320.558 76.1542C319.913 76.327 319.416 76.6196 319.066 77.0321C318.719 77.4388 318.606 77.8685 318.727 78.3213C318.835 78.7237 319.067 79.0024 319.422 79.1572C319.777 79.312 320.287 79.3838 320.95 79.3727L322.617 79.3377C323.621 79.314 324.416 79.4757 325.005 79.823C325.592 80.1658 325.984 80.7053 326.181 81.4416C326.343 82.0453 326.314 82.6316 326.093 83.2004C325.878 83.7679 325.498 84.2716 324.954 84.7115C324.41 85.1513 323.729 85.4809 322.91 85.7003C321.836 85.9883 320.884 85.9934 320.054 85.7156C319.225 85.4378 318.596 84.8758 318.169 84.0297L319.602 83.2337C319.901 83.7617 320.291 84.1128 320.774 84.2873C321.262 84.4606 321.837 84.4584 322.501 84.2807C323.255 84.0785 323.811 83.7579 324.169 83.3189C324.53 82.8741 324.65 82.4253 324.529 81.9725C324.431 81.6066 324.221 81.3345 323.899 81.1561C323.575 80.9732 323.132 80.8911 322.568 80.9098L320.701 80.9687C319.675 80.9986 318.871 80.8341 318.29 80.4752C317.712 80.1105 317.325 79.5646 317.13 78.8374C316.971 78.2429 316.997 77.6722 317.208 77.1254C317.424 76.5773 317.788 76.0951 318.299 75.6788C318.814 75.2613 319.442 74.9532 320.183 74.7547C321.226 74.4753 322.106 74.4846 322.823 74.7827C323.545 75.0795 324.132 75.5692 324.584 76.2519ZM335.146 67.128L337.714 77.263L336.123 77.6895L333.28 67.628L335.146 67.128ZM338.007 81.5376C337.668 81.6282 337.345 81.5849 337.038 81.4074C336.731 81.23 336.532 80.972 336.441 80.6336C336.35 80.2951 336.394 79.9722 336.571 79.6649C336.749 79.3576 337.007 79.1585 337.345 79.0679C337.683 78.9772 338.006 79.0206 338.314 79.198C338.621 79.3754 338.82 79.6334 338.911 79.9718C338.971 80.1959 338.969 80.4171 338.905 80.6352C338.845 80.8521 338.737 81.0429 338.58 81.2075C338.427 81.3663 338.235 81.4763 338.007 81.5376Z"/>
</mask>
<path d="M288.591 87.1315C288.988 88.6133 289.064 89.9656 288.818 91.1883C288.572 92.4111 288.061 93.4401 287.285 94.2755C286.509 95.1109 285.521 95.6892 284.323 96.0103C283.125 96.3313 281.981 96.3242 280.891 95.9887C279.801 95.6533 278.844 95.0176 278.02 94.0817C277.196 93.1457 276.585 91.9368 276.188 90.455C275.791 88.9732 275.715 87.6209 275.961 86.3982C276.207 85.1754 276.718 84.1464 277.494 83.311C278.27 82.4756 279.257 81.8973 280.456 81.5762C281.654 81.2552 282.798 81.2623 283.888 81.5978C284.978 81.9332 285.935 82.5689 286.759 83.5048C287.583 84.4408 288.194 85.6497 288.591 87.1315ZM286.945 87.5727C286.619 86.3561 286.14 85.3839 285.509 84.656C284.882 83.9269 284.166 83.4399 283.36 83.1951C282.559 82.949 281.733 82.9399 280.882 83.1678C280.031 83.3958 279.318 83.8172 278.743 84.4322C278.172 85.0459 277.795 85.8258 277.613 86.7718C277.434 87.7166 277.508 88.7973 277.834 90.0138C278.16 91.2304 278.637 92.2032 279.263 92.9323C279.895 93.6602 280.611 94.1472 281.412 94.3933C282.218 94.6381 283.046 94.6466 283.897 94.4187C284.747 94.1907 285.458 93.7699 286.029 93.1562C286.604 92.5412 286.981 91.7613 287.159 90.8165C287.342 89.8705 287.271 88.7892 286.945 87.5727ZM298.42 92.2624C297.469 92.5173 296.574 92.5145 295.734 92.2542C294.899 91.9926 294.172 91.5086 293.551 90.8024C292.935 90.0949 292.481 89.1969 292.19 88.1084C291.895 87.0108 291.838 85.9993 292.016 85.0741C292.199 84.1476 292.587 83.3623 293.179 82.7184C293.776 82.0732 294.55 81.6232 295.501 81.3683C296.452 81.1134 297.345 81.1167 298.18 81.3783C299.02 81.6387 299.748 82.1249 300.365 82.837C300.987 83.5478 301.445 84.452 301.739 85.5497C302.031 86.6382 302.084 87.6434 301.9 88.5653C301.72 89.486 301.332 90.2689 300.735 90.9141C300.143 91.5581 299.372 92.0075 298.42 92.2624ZM298.031 90.808C298.753 90.6144 299.298 90.2699 299.665 89.7744C300.033 89.2789 300.247 88.6993 300.31 88.0356C300.372 87.3718 300.309 86.6878 300.12 85.9835C299.931 85.2792 299.643 84.6529 299.256 84.1047C298.869 83.5564 298.392 83.1573 297.825 82.9073C297.258 82.6572 296.613 82.629 295.891 82.8227C295.168 83.0163 294.624 83.3631 294.258 83.8631C293.892 84.3632 293.678 84.9473 293.617 85.6157C293.556 86.284 293.62 86.9703 293.809 87.6746C293.997 88.379 294.285 89.0029 294.671 89.5466C295.056 90.0903 295.532 90.4848 296.098 90.7303C296.664 90.9757 297.308 91.0016 298.031 90.808ZM307.632 93.794L303.75 79.3051L305.314 78.886L305.763 80.5599L305.955 80.5084C306.025 80.2936 306.127 80.0162 306.261 79.6763C306.399 79.3306 306.637 78.9923 306.975 78.6616C307.316 78.3251 307.829 78.0649 308.515 77.8811C309.403 77.6434 310.244 77.6556 311.04 77.9179C311.836 78.1802 312.532 78.6675 313.13 79.3798C313.728 80.0922 314.175 81.0018 314.472 82.1086C314.771 83.2245 314.84 84.2427 314.68 85.1631C314.518 86.0789 314.161 86.8509 313.609 87.4793C313.056 88.1031 312.34 88.5326 311.462 88.7679C310.785 88.9492 310.213 88.9824 309.746 88.8674C309.278 88.7478 308.895 88.5733 308.598 88.344C308.3 88.1101 308.066 87.9131 307.896 87.7528L307.759 87.7896L309.251 93.3601L307.632 93.794ZM306.753 84.1473C306.967 84.9431 307.271 85.6139 307.668 86.1596C308.063 86.7008 308.53 87.0829 309.07 87.3058C309.609 87.5242 310.203 87.5463 310.853 87.3723C311.53 87.1909 312.047 86.8612 312.404 86.3832C312.764 85.8993 312.977 85.3226 313.043 84.6531C313.112 83.9777 313.046 83.265 312.845 82.515C312.647 81.7741 312.353 81.137 311.965 80.6037C311.581 80.0646 311.113 79.6825 310.563 79.4575C310.016 79.2267 309.399 79.2031 308.713 79.387C308.054 79.5634 307.546 79.8786 307.187 80.3326C306.827 80.782 306.612 81.3346 306.543 81.9904C306.472 82.6417 306.543 83.3606 306.753 84.1473ZM324.584 76.2519L323.24 77.0532C323.084 76.8353 322.886 76.6359 322.646 76.455C322.41 76.2683 322.121 76.14 321.778 76.0699C321.436 75.9999 321.029 76.028 320.558 76.1542C319.913 76.327 319.416 76.6196 319.066 77.0321C318.719 77.4388 318.606 77.8685 318.727 78.3213C318.835 78.7237 319.067 79.0024 319.422 79.1572C319.777 79.312 320.287 79.3838 320.95 79.3727L322.617 79.3377C323.621 79.314 324.416 79.4757 325.005 79.823C325.592 80.1658 325.984 80.7053 326.181 81.4416C326.343 82.0453 326.314 82.6316 326.093 83.2004C325.878 83.7679 325.498 84.2716 324.954 84.7115C324.41 85.1513 323.729 85.4809 322.91 85.7003C321.836 85.9883 320.884 85.9934 320.054 85.7156C319.225 85.4378 318.596 84.8758 318.169 84.0297L319.602 83.2337C319.901 83.7617 320.291 84.1128 320.774 84.2873C321.262 84.4606 321.837 84.4584 322.501 84.2807C323.255 84.0785 323.811 83.7579 324.169 83.3189C324.53 82.8741 324.65 82.4253 324.529 81.9725C324.431 81.6066 324.221 81.3345 323.899 81.1561C323.575 80.9732 323.132 80.8911 322.568 80.9098L320.701 80.9687C319.675 80.9986 318.871 80.8341 318.29 80.4752C317.712 80.1105 317.325 79.5646 317.13 78.8374C316.971 78.2429 316.997 77.6722 317.208 77.1254C317.424 76.5773 317.788 76.0951 318.299 75.6788C318.814 75.2613 319.442 74.9532 320.183 74.7547C321.226 74.4753 322.106 74.4846 322.823 74.7827C323.545 75.0795 324.132 75.5692 324.584 76.2519ZM335.146 67.128L337.714 77.263L336.123 77.6895L333.28 67.628L335.146 67.128ZM338.007 81.5376C337.668 81.6282 337.345 81.5849 337.038 81.4074C336.731 81.23 336.532 80.972 336.441 80.6336C336.35 80.2951 336.394 79.9722 336.571 79.6649C336.749 79.3576 337.007 79.1585 337.345 79.0679C337.683 78.9772 338.006 79.0206 338.314 79.198C338.621 79.3754 338.82 79.6334 338.911 79.9718C338.971 80.1959 338.969 80.4171 338.905 80.6352C338.845 80.8521 338.737 81.0429 338.58 81.2075C338.427 81.3663 338.235 81.4763 338.007 81.5376Z" fill="white"/>
<path d="M288.818 91.1883L288.053 91.0346L288.053 91.0346L288.818 91.1883ZM287.285 94.2755L287.856 94.8064L287.856 94.8064L287.285 94.2755ZM280.891 95.9887L280.662 96.7342L280.662 96.7342L280.891 95.9887ZM278.02 94.0817L278.605 93.5661L278.605 93.5661L278.02 94.0817ZM275.961 86.3982L275.196 86.2444L275.961 86.3982ZM283.888 81.5978L284.117 80.8523L284.117 80.8523L283.888 81.5978ZM286.759 83.5048L286.174 84.0204L286.174 84.0204L286.759 83.5048ZM285.509 84.656L284.917 85.1645L284.92 85.1671L285.509 84.656ZM283.36 83.1951L283.131 83.9407L283.133 83.9414L283.36 83.1951ZM278.743 84.4322L278.173 83.8992L278.172 83.9009L278.743 84.4322ZM277.613 86.7718L276.847 86.6238L276.846 86.6272L277.613 86.7718ZM279.263 92.9323L278.672 93.4408L278.674 93.4434L279.263 92.9323ZM281.412 94.3933L281.183 95.1389L281.185 95.1396L281.412 94.3933ZM286.029 93.1562L285.459 92.6232L285.458 92.6249L286.029 93.1562ZM287.159 90.8165L286.394 90.6686L286.393 90.672L287.159 90.8165ZM287.838 87.3334C288.211 88.7253 288.271 89.9537 288.053 91.0346L289.583 91.3421C289.857 89.9776 289.766 88.5013 289.345 86.9296L287.838 87.3334ZM288.053 91.0346C287.833 92.1298 287.382 93.0245 286.713 93.7446L287.856 94.8064C288.739 93.8558 289.311 92.6923 289.583 91.3421L288.053 91.0346ZM286.713 93.7446C286.046 94.4632 285.191 94.9702 284.121 95.2568L284.525 96.7637C285.852 96.4081 286.972 95.7587 287.856 94.8064L286.713 93.7446ZM284.121 95.2568C283.052 95.5434 282.058 95.5317 281.12 95.2432L280.662 96.7342C281.904 97.1166 283.198 97.1192 284.525 96.7637L284.121 95.2568ZM281.12 95.2432C280.181 94.9541 279.344 94.4046 278.605 93.5661L277.434 94.5972C278.345 95.6307 279.421 96.3525 280.662 96.7342L281.12 95.2432ZM278.605 93.5661C277.876 92.7387 277.314 91.645 276.941 90.2531L275.434 90.6569C275.855 92.2286 276.515 93.5526 277.434 94.5972L278.605 93.5661ZM276.941 90.2531C276.568 88.8612 276.508 87.6328 276.726 86.5519L275.196 86.2444C274.922 87.6089 275.013 89.0852 275.434 90.6569L276.941 90.2531ZM276.726 86.5519C276.946 85.4567 277.396 84.562 278.066 83.8419L276.923 82.7801C276.039 83.7307 275.468 84.8942 275.196 86.2444L276.726 86.5519ZM278.066 83.8419C278.733 83.1233 279.588 82.6162 280.658 82.3297L280.254 80.8228C278.927 81.1784 277.807 81.8278 276.923 82.7801L278.066 83.8419ZM280.658 82.3297C281.727 82.0431 282.721 82.0547 283.658 82.3433L284.117 80.8523C282.875 80.4699 281.581 80.4673 280.254 80.8228L280.658 82.3297ZM283.658 82.3433C284.598 82.6324 285.435 83.1819 286.174 84.0204L287.344 82.9893C286.434 81.9558 285.357 81.2339 284.117 80.8523L283.658 82.3433ZM286.174 84.0204C286.902 84.8478 287.465 85.9415 287.838 87.3334L289.345 86.9296C288.923 85.3579 288.264 84.0338 287.344 82.9893L286.174 84.0204ZM287.698 87.3708C287.351 86.0738 286.827 84.9852 286.098 84.145L284.92 85.1671C285.453 85.7826 285.887 86.6385 286.191 87.7746L287.698 87.3708ZM286.1 84.1476C285.391 83.3225 284.553 82.7425 283.587 82.4488L283.133 83.9414C283.778 84.1373 284.373 84.5313 284.917 85.1645L286.1 84.1476ZM283.589 82.4494C282.64 82.1581 281.665 82.1506 280.68 82.4144L281.084 83.9212C281.801 83.7292 282.477 83.7398 283.131 83.9407L283.589 82.4494ZM280.68 82.4144C279.696 82.6782 278.853 83.1729 278.173 83.8992L279.313 84.9651C279.784 84.4615 280.367 84.1133 281.084 83.9212L280.68 82.4144ZM278.172 83.9009C277.487 84.6369 277.053 85.5563 276.847 86.6238L278.378 86.9198C278.538 86.0953 278.857 85.4549 279.314 84.9634L278.172 83.9009ZM276.846 86.6272C276.641 87.7169 276.734 88.9197 277.081 90.2157L278.588 89.8119C278.283 88.6748 278.228 87.7163 278.379 86.9164L276.846 86.6272ZM277.081 90.2157C277.428 91.5117 277.949 92.5998 278.672 93.4408L279.855 92.4239C279.324 91.8066 278.892 90.9491 278.588 89.8119L277.081 90.2157ZM278.674 93.4434C279.386 94.2648 280.222 94.8438 281.183 95.1389L281.641 93.6477C280.999 93.4506 280.403 93.0556 279.853 92.4213L278.674 93.4434ZM281.185 95.1396C282.137 95.4288 283.114 95.4359 284.099 95.1721L283.695 93.6652C282.978 93.8573 282.299 93.8475 281.639 93.647L281.185 95.1396ZM284.099 95.1721C285.083 94.9083 285.924 94.414 286.6 93.6874L285.458 92.6249C284.992 93.1258 284.412 93.4732 283.695 93.6652L284.099 95.1721ZM286.599 93.6891C287.289 92.9513 287.724 92.0303 287.926 90.9611L286.393 90.672C286.238 91.4924 285.92 92.1311 285.459 92.6232L286.599 93.6891ZM287.925 90.9645C288.136 89.8725 288.046 88.6678 287.698 87.3708L286.191 87.7746C286.496 88.9106 286.548 89.8686 286.394 90.6686L287.925 90.9645ZM295.734 92.2542L295.501 92.9985L295.503 92.9991L295.734 92.2542ZM293.551 90.8024L292.963 91.3146L292.965 91.3173L293.551 90.8024ZM292.016 85.0741L291.251 84.9228L291.25 84.9263L292.016 85.0741ZM293.179 82.7184L292.606 82.1888L292.605 82.1904L293.179 82.7184ZM298.18 81.3783L297.947 82.1227L297.949 82.1233L298.18 81.3783ZM300.365 82.837L299.776 83.3479L299.778 83.3505L300.365 82.837ZM301.9 88.5653L301.135 88.4124L301.135 88.4158L301.9 88.5653ZM300.735 90.9141L300.163 90.3845L300.161 90.3862L300.735 90.9141ZM299.665 89.7744L299.039 89.3099L299.039 89.3099L299.665 89.7744ZM300.31 88.0356L301.086 88.1085L301.086 88.1085L300.31 88.0356ZM299.256 84.1047L299.894 83.6548L299.894 83.6548L299.256 84.1047ZM297.825 82.9073L298.14 82.1936L298.14 82.1936L297.825 82.9073ZM294.258 83.8631L293.629 83.4024L293.629 83.4024L294.258 83.8631ZM293.617 85.6157L292.84 85.5446L292.84 85.5446L293.617 85.6157ZM294.671 89.5466L294.034 89.9981L294.034 89.9981L294.671 89.5466ZM296.098 90.7303L296.408 90.0147L296.408 90.0147L296.098 90.7303ZM298.218 91.509C297.392 91.7305 296.648 91.7208 295.965 91.5092L295.503 92.9991C296.5 93.3083 297.546 93.3041 298.622 93.0158L298.218 91.509ZM295.967 91.5099C295.279 91.2942 294.671 90.8948 294.137 90.2875L292.965 91.3173C293.673 92.1225 294.52 92.6909 295.501 92.9985L295.967 91.5099ZM294.139 90.2902C293.615 89.6885 293.21 88.9032 292.943 87.9066L291.436 88.3103C291.752 89.4907 292.255 90.5014 292.963 91.3146L294.139 90.2902ZM292.943 87.9066C292.673 86.8999 292.63 86.0097 292.782 85.2218L291.25 84.9263C291.045 85.989 291.118 87.1217 291.436 88.3103L292.943 87.9066ZM292.781 85.2253C292.939 84.4279 293.266 83.7763 293.753 83.2464L292.605 82.1904C291.908 82.9484 291.46 83.8672 291.251 84.9228L292.781 85.2253ZM293.752 83.248C294.237 82.7236 294.876 82.3432 295.703 82.1217L295.299 80.6149C294.223 80.9031 293.315 81.4228 292.607 82.1888L293.752 83.248ZM295.703 82.1217C296.53 81.9002 297.271 81.9107 297.947 82.1227L298.414 80.634C297.42 80.3228 296.375 80.3266 295.299 80.6149L295.703 82.1217ZM297.949 82.1233C298.64 82.3375 299.247 82.7375 299.776 83.3479L300.955 82.3261C300.249 81.5124 299.4 80.94 298.411 80.6334L297.949 82.1233ZM299.778 83.3505C300.307 83.9551 300.716 84.746 300.986 85.7515L302.493 85.3478C302.174 84.158 301.667 83.1405 300.952 82.3234L299.778 83.3505ZM300.986 85.7515C301.252 86.747 301.292 87.6291 301.135 88.4124L302.665 88.7182C302.877 87.6576 302.809 86.5293 302.493 85.3478L300.986 85.7515ZM301.135 88.4158C300.981 89.2044 300.654 89.8529 300.163 90.3845L301.308 91.4437C302.01 90.685 302.46 89.7677 302.666 88.7148L301.135 88.4158ZM300.161 90.3862C299.681 90.9079 299.045 91.2874 298.218 91.509L298.622 93.0158C299.698 92.7276 300.605 92.2083 301.31 91.4421L300.161 90.3862ZM298.232 91.5614C299.088 91.3322 299.799 90.9041 300.292 90.2389L299.039 89.3099C298.797 89.6356 298.419 89.8965 297.829 90.0546L298.232 91.5614ZM300.292 90.2389C300.751 89.6198 301.012 88.9021 301.086 88.1085L299.533 87.9627C299.483 88.4966 299.314 88.9381 299.039 89.3099L300.292 90.2389ZM301.086 88.1085C301.158 87.3443 301.084 86.567 300.874 85.7816L299.367 86.1854C299.534 86.8086 299.586 87.3994 299.533 87.9627L301.086 88.1085ZM300.874 85.7816C300.663 84.9961 300.338 84.2844 299.894 83.6548L298.619 84.5546C298.949 85.0214 299.2 85.5622 299.367 86.1854L300.874 85.7816ZM299.894 83.6548C299.432 83.0009 298.847 82.5054 298.14 82.1936L297.511 83.621C297.937 83.8092 298.307 84.1119 298.619 84.5546L299.894 83.6548ZM298.14 82.1936C297.379 81.8578 296.546 81.8395 295.689 82.0692L296.093 83.5761C296.68 83.4186 297.138 83.4567 297.511 83.621L298.14 82.1936ZM295.689 82.0692C294.832 82.299 294.12 82.7309 293.629 83.4024L294.887 84.3238C295.128 83.9953 295.505 83.7336 296.093 83.5761L295.689 82.0692ZM293.629 83.4024C293.172 84.026 292.913 84.7476 292.84 85.5446L294.394 85.6867C294.443 85.1471 294.612 84.7003 294.887 84.3238L293.629 83.4024ZM292.84 85.5446C292.77 86.3122 292.845 87.091 293.055 87.8765L294.562 87.4728C294.395 86.8496 294.342 86.2558 294.394 85.6867L292.84 85.5446ZM293.055 87.8765C293.266 88.6619 293.59 89.3721 294.034 89.9981L295.307 89.0951C294.979 88.6338 294.729 88.096 294.562 87.4728L293.055 87.8765ZM294.034 89.9981C294.496 90.6481 295.081 91.1391 295.788 91.4458L296.408 90.0147C295.984 89.8305 295.617 89.5324 295.307 89.0951L294.034 89.9981ZM295.788 91.4458C296.547 91.7754 297.377 91.7906 298.232 91.5614L297.829 90.0546C297.239 90.2126 296.78 90.176 296.408 90.0147L295.788 91.4458ZM307.632 93.794L306.879 93.9958L307.081 94.7493L307.834 94.5474L307.632 93.794ZM303.75 79.3051L303.548 78.5516L302.795 78.7535L302.997 79.5069L303.75 79.3051ZM305.314 78.886L306.068 78.6841L305.866 77.9307L305.112 78.1325L305.314 78.886ZM305.763 80.5599L305.009 80.7617L305.211 81.5152L305.965 81.3133L305.763 80.5599ZM305.955 80.5084L306.157 81.2618L306.565 81.1523L306.696 80.7497L305.955 80.5084ZM306.261 79.6763L305.537 79.3876L305.536 79.3895L306.261 79.6763ZM306.975 78.6616L307.52 79.219L307.522 79.217L306.975 78.6616ZM311.04 77.9179L311.284 77.1771L311.284 77.1771L311.04 77.9179ZM313.13 79.3798L313.728 78.8785L313.728 78.8785L313.13 79.3798ZM314.68 85.1631L315.448 85.2985L315.448 85.2968L314.68 85.1631ZM313.609 87.4793L314.193 87.9969L314.195 87.9942L313.609 87.4793ZM309.746 88.8674L309.553 89.6231L309.559 89.6247L309.746 88.8674ZM308.598 88.344L308.117 88.9576L308.121 88.9612L308.598 88.344ZM307.896 87.7528L308.43 87.1846L308.114 86.887L307.694 86.9994L307.896 87.7528ZM307.759 87.7896L307.557 87.0362L306.803 87.2381L307.005 87.9915L307.759 87.7896ZM309.251 93.3601L309.453 94.1136L310.207 93.9117L310.005 93.1583L309.251 93.3601ZM307.668 86.1596L307.036 86.6179L307.037 86.6195L307.668 86.1596ZM309.07 87.3058L308.773 88.0268L308.777 88.0287L309.07 87.3058ZM312.404 86.3832L313.029 86.8501L313.029 86.8492L312.404 86.3832ZM313.043 84.6531L312.267 84.5738L312.267 84.5769L313.043 84.6531ZM311.965 80.6037L311.33 81.0567L311.335 81.0626L311.965 80.6037ZM310.563 79.4575L310.26 80.1762L310.268 80.1795L310.563 79.4575ZM307.187 80.3326L307.796 80.8203L307.799 80.8162L307.187 80.3326ZM306.543 81.9904L307.318 82.0745L307.319 82.0725L306.543 81.9904ZM308.386 93.5921L304.503 79.1032L302.997 79.5069L306.879 93.9958L308.386 93.5921ZM303.952 80.0585L305.516 79.6394L305.112 78.1325L303.548 78.5516L303.952 80.0585ZM304.561 79.0878L305.009 80.7617L306.516 80.358L306.068 78.6841L304.561 79.0878ZM305.965 81.3133L306.157 81.2618L305.753 79.755L305.561 79.8064L305.965 81.3133ZM306.696 80.7497C306.759 80.5566 306.855 80.296 306.987 79.9631L305.536 79.3895C305.399 79.7365 305.29 80.0305 305.213 80.267L306.696 80.7497ZM306.986 79.965C307.074 79.7437 307.24 79.4935 307.52 79.219L306.429 78.1042C306.034 78.4912 305.724 78.9174 305.537 79.3876L306.986 79.965ZM307.522 79.217C307.732 79.0103 308.103 78.7991 308.717 78.6345L308.314 77.1277C307.555 77.3308 306.9 77.6399 306.427 78.1063L307.522 79.217ZM308.717 78.6345C309.473 78.4322 310.158 78.4485 310.796 78.6587L311.284 77.1771C310.33 76.8627 309.333 76.8546 308.314 77.1277L308.717 78.6345ZM310.796 78.6587C311.439 78.8707 312.018 79.2674 312.533 79.8812L313.728 78.8785C313.047 78.0676 312.232 77.4896 311.284 77.1771L310.796 78.6587ZM312.533 79.8812C313.042 80.4885 313.444 81.2887 313.718 82.3105L315.225 81.9067C314.906 80.7149 314.414 79.6959 313.728 78.8785L312.533 79.8812ZM313.718 82.3105C313.995 83.3422 314.048 84.2437 313.911 85.0293L315.448 85.2968C315.632 84.2416 315.547 83.1068 315.225 81.9067L313.718 82.3105ZM313.912 85.0276C313.772 85.8188 313.471 86.4551 313.023 86.9644L314.195 87.9942C314.852 87.2467 315.264 86.3389 315.448 85.2985L313.912 85.0276ZM313.026 86.9616C312.583 87.4608 312.005 87.815 311.26 88.0145L311.664 89.5213C312.676 89.2502 313.529 88.7453 314.193 87.9969L313.026 86.9616ZM311.26 88.0145C310.656 88.1763 310.227 88.1825 309.932 88.11L309.559 89.6247C310.199 89.7824 310.914 89.7222 311.664 89.5213L311.26 88.0145ZM309.939 88.1116C309.545 88.0111 309.267 87.8752 309.075 87.7268L308.121 88.9612C308.523 89.2714 309.01 89.4845 309.553 89.6231L309.939 88.1116ZM309.08 87.7304C308.791 87.5033 308.577 87.3223 308.43 87.1846L307.362 88.3211C307.556 88.5038 307.81 88.7169 308.117 88.9576L309.08 87.7304ZM307.694 86.9994L307.557 87.0362L307.961 88.543L308.098 88.5063L307.694 86.9994ZM307.005 87.9915L308.498 93.562L310.005 93.1583L308.512 87.5877L307.005 87.9915ZM309.049 92.6067L307.43 93.0405L307.834 94.5474L309.453 94.1136L309.049 92.6067ZM306 84.3492C306.233 85.2174 306.573 85.9798 307.036 86.6179L308.299 85.7014C307.969 85.2479 307.701 84.6688 307.507 83.9454L306 84.3492ZM307.037 86.6195C307.504 87.2593 308.081 87.7415 308.773 88.0268L309.368 86.5848C308.979 86.4244 308.621 86.1424 308.298 85.6998L307.037 86.6195ZM308.777 88.0287C309.497 88.3204 310.268 88.3365 311.055 88.1257L310.651 86.6189C310.139 86.7562 309.721 86.7279 309.363 86.5829L308.777 88.0287ZM311.055 88.1257C311.87 87.9073 312.549 87.4919 313.029 86.8501L311.779 85.9163C311.544 86.2306 311.189 86.4746 310.651 86.6189L311.055 88.1257ZM313.029 86.8492C313.484 86.2388 313.742 85.5234 313.819 84.7292L312.267 84.5769C312.213 85.1219 312.045 85.5598 311.778 85.9171L313.029 86.8492ZM313.819 84.7324C313.899 83.9502 313.821 83.1417 313.599 82.3131L312.092 82.7168C312.272 83.3883 312.325 84.0053 312.267 84.5738L313.819 84.7324ZM313.599 82.3131C313.379 81.4945 313.049 80.767 312.596 80.1448L311.335 81.0626C311.658 81.5069 311.914 82.0536 312.092 82.7168L313.599 82.3131ZM312.6 80.1506C312.14 79.5057 311.56 79.0225 310.858 78.7355L310.268 80.1795C310.667 80.3426 311.021 80.6235 311.331 81.0567L312.6 80.1506ZM310.866 78.7388C310.129 78.4281 309.331 78.4139 308.511 78.6335L308.915 80.1404C309.467 79.9924 309.902 80.0252 310.26 80.1762L310.866 78.7388ZM308.511 78.6335C307.72 78.8455 307.056 79.2409 306.575 79.849L307.799 80.8162C308.036 80.5164 308.389 80.2814 308.915 80.1404L308.511 78.6335ZM306.578 79.845C306.112 80.427 305.85 81.1263 305.767 81.9084L307.319 82.0725C307.375 81.5429 307.542 81.137 307.796 80.8203L306.578 79.845ZM305.768 81.9064C305.684 82.6737 305.77 83.4912 306 84.3492L307.507 83.9454C307.315 83.2301 307.26 82.6097 307.318 82.0745L305.768 81.9064ZM324.584 76.2519L324.984 76.9218L325.687 76.5029L325.235 75.8209L324.584 76.2519ZM323.24 77.0532L322.607 77.5081L323.024 78.09L323.64 77.7231L323.24 77.0532ZM322.646 76.455L322.163 77.0671L322.169 77.0724L322.176 77.0776L322.646 76.455ZM321.778 76.0699L321.935 75.3058L321.935 75.3058L321.778 76.0699ZM319.066 77.0321L319.659 77.5383L319.66 77.537L319.066 77.0321ZM319.422 79.1572L319.11 79.8722L319.11 79.8722L319.422 79.1572ZM320.95 79.3727L320.963 80.1526L320.967 80.1525L320.95 79.3727ZM322.617 79.3377L322.634 80.1176L322.636 80.1175L322.617 79.3377ZM325.005 79.823L324.608 80.4947L324.611 80.4966L325.005 79.823ZM326.093 83.2004L325.366 82.9188L325.364 82.9234L326.093 83.2004ZM320.054 85.7156L320.302 84.976L320.302 84.976L320.054 85.7156ZM318.169 84.0297L317.79 83.3477L317.134 83.7119L317.473 84.3815L318.169 84.0297ZM319.602 83.2337L320.282 82.85L319.901 82.1761L319.224 82.5518L319.602 83.2337ZM320.774 84.2873L320.509 85.0209L320.513 85.0223L320.774 84.2873ZM324.169 83.3189L324.774 83.8117L324.775 83.8106L324.169 83.3189ZM323.899 81.1561L323.515 81.8352L323.521 81.8386L323.899 81.1561ZM322.568 80.9098L322.593 81.6894L322.594 81.6893L322.568 80.9098ZM320.701 80.9687L320.724 81.7484L320.726 81.7483L320.701 80.9687ZM318.29 80.4752L317.874 81.135L317.88 81.139L318.29 80.4752ZM317.208 77.1254L316.483 76.8395L316.481 76.8442L317.208 77.1254ZM318.299 75.6788L317.808 75.0727L317.806 75.0741L318.299 75.6788ZM322.823 74.7827L322.524 75.5029L322.526 75.504L322.823 74.7827ZM324.185 75.5819L322.841 76.3832L323.64 77.7231L324.984 76.9218L324.185 75.5819ZM323.874 76.5983C323.667 76.3095 323.411 76.0551 323.116 75.8325L322.176 77.0776C322.361 77.2167 322.501 77.3611 322.607 77.5081L323.874 76.5983ZM323.13 75.843C322.784 75.5695 322.377 75.3963 321.935 75.3058L321.622 76.8341C321.864 76.8836 322.036 76.9672 322.163 77.0671L323.13 75.843ZM321.935 75.3058C321.436 75.2038 320.901 75.2549 320.356 75.4008L320.76 76.9076C321.158 76.8011 321.436 76.796 321.622 76.8341L321.935 75.3058ZM320.356 75.4008C319.595 75.6049 318.946 75.9682 318.471 76.5272L319.66 77.537C319.886 77.271 320.232 77.0491 320.76 76.9076L320.356 75.4008ZM318.472 76.5259C317.986 77.0961 317.776 77.7846 317.974 78.5231L319.481 78.1194C319.436 77.9524 319.452 77.7815 319.659 77.5383L318.472 76.5259ZM317.974 78.5231C318.138 79.1351 318.519 79.6146 319.11 79.8722L319.734 78.4422C319.614 78.3902 319.532 78.3123 319.481 78.1194L317.974 78.5231ZM319.11 79.8722C319.616 80.0927 320.257 80.1645 320.963 80.1526L320.937 78.5928C320.316 78.6032 319.938 78.5313 319.734 78.4422L319.11 79.8722ZM320.967 80.1525L322.634 80.1176L322.601 78.5579L320.934 78.5929L320.967 80.1525ZM322.636 80.1175C323.558 80.0957 324.191 80.2485 324.608 80.4947L325.401 79.1514C324.642 78.7029 323.684 78.5323 322.599 78.558L322.636 80.1175ZM324.611 80.4966C324.998 80.7227 325.276 81.0794 325.428 81.6435L326.934 81.2398C326.691 80.3312 326.185 79.6088 325.398 79.1495L324.611 80.4966ZM325.428 81.6435C325.548 82.0916 325.525 82.5084 325.366 82.9188L326.821 83.4819C327.102 82.7548 327.138 81.999 326.934 81.2398L325.428 81.6435ZM325.364 82.9234C325.205 83.3434 324.917 83.7385 324.464 84.105L325.445 85.318C326.079 84.8047 326.551 84.1925 326.823 83.4773L325.364 82.9234ZM324.464 84.105C324.021 84.4633 323.444 84.7499 322.708 84.9469L323.112 86.4537C324.014 86.2119 324.8 85.8394 325.445 85.318L324.464 84.105ZM322.708 84.9469C321.742 85.2059 320.951 85.1934 320.302 84.976L319.806 86.4552C320.816 86.7933 321.93 86.7706 323.112 86.4537L322.708 84.9469ZM320.302 84.976C319.685 84.7692 319.208 84.3577 318.865 83.6778L317.473 84.3815C317.984 85.394 318.765 86.1064 319.806 86.4552L320.302 84.976ZM318.547 84.7116L319.981 83.9157L319.224 82.5518L317.79 83.3477L318.547 84.7116ZM318.923 83.6175C319.296 84.2769 319.82 84.772 320.509 85.0209L321.039 83.5537C320.763 83.4537 320.505 83.2464 320.282 82.85L318.923 83.6175ZM320.513 85.0223C321.191 85.2633 321.936 85.2395 322.702 85.0341L322.299 83.5273C321.739 83.6772 321.333 83.6579 321.036 83.5524L320.513 85.0223ZM322.702 85.0341C323.557 84.8052 324.28 84.4178 324.774 83.8117L323.565 82.8261C323.343 83.0979 322.954 83.3518 322.299 83.5273L322.702 85.0341ZM324.775 83.8106C325.254 83.2202 325.483 82.5196 325.283 81.7706L323.776 82.1744C323.818 82.331 323.807 82.5279 323.564 82.8272L324.775 83.8106ZM325.283 81.7706C325.131 81.2067 324.79 80.7578 324.276 80.4737L323.521 81.8386C323.652 81.9112 323.731 82.0065 323.776 82.1744L325.283 81.7706ZM324.282 80.4772C323.786 80.1962 323.18 80.1091 322.542 80.1302L322.594 81.6893C323.083 81.6731 323.365 81.7502 323.515 81.8351L324.282 80.4772ZM322.543 80.1302L320.677 80.1891L320.726 81.7483L322.593 81.6894L322.543 80.1302ZM320.679 80.1891C319.733 80.2166 319.101 80.0595 318.699 79.8115L317.88 81.139C318.641 81.6087 319.617 81.7807 320.724 81.7484L320.679 80.1891ZM318.706 79.8155C318.311 79.5666 318.033 79.194 317.884 78.6355L316.377 79.0393C316.617 79.9352 317.112 80.6545 317.874 81.1349L318.706 79.8155ZM317.884 78.6355C317.765 78.1922 317.787 77.7911 317.936 77.4065L316.481 76.8442C316.207 77.5532 316.177 78.2935 316.377 79.0393L317.884 78.6355ZM317.934 77.4112C318.095 77.002 318.372 76.6256 318.791 76.2835L317.806 75.0741C317.204 75.5647 316.753 76.1526 316.483 76.8395L317.934 77.4112ZM318.79 76.285C319.208 75.9461 319.734 75.6827 320.385 75.5081L319.981 74.0013C319.151 74.2237 318.421 74.5764 317.808 75.0727L318.79 76.285ZM320.385 75.5081C321.325 75.2562 322.017 75.2924 322.524 75.5029L323.123 74.0624C322.195 73.6769 321.127 73.6944 319.981 74.0013L320.385 75.5081ZM322.526 75.504C323.097 75.7385 323.563 76.1233 323.934 76.6828L325.235 75.8209C324.7 75.0151 323.993 74.4204 323.12 74.0613L322.526 75.504ZM335.146 67.128L335.902 66.9363L335.708 66.1699L334.944 66.3745L335.146 67.128ZM337.714 77.263L337.916 78.0165L338.66 77.8173L338.47 77.0714L337.714 77.263ZM336.123 77.6895L335.372 77.9016L335.581 78.6421L336.325 78.4429L336.123 77.6895ZM333.28 67.628L333.078 66.8745L332.314 67.0792L332.529 67.84L333.28 67.628ZM337.038 81.4074L337.428 80.7319L337.428 80.7319L337.038 81.4074ZM338.314 79.198L338.704 78.5225L338.704 78.5225L338.314 79.198ZM338.905 80.6352L338.156 80.4153L338.152 80.4288L338.905 80.6352ZM338.58 81.2075L339.141 81.7497L339.145 81.7456L338.58 81.2075ZM334.39 67.3196L336.958 77.4547L338.47 77.0714L335.902 66.9363L334.39 67.3196ZM337.512 76.5096L335.921 76.9361L336.325 78.4429L337.916 78.0165L337.512 76.5096ZM336.873 77.4774L334.03 67.4159L332.529 67.84L335.372 77.9016L336.873 77.4774ZM333.482 68.3814L335.348 67.8814L334.944 66.3745L333.078 66.8745L333.482 68.3814ZM337.805 80.7841C337.669 80.8205 337.559 80.8074 337.428 80.7319L336.648 82.0829C337.132 82.3623 337.668 82.436 338.209 82.291L337.805 80.7841ZM337.428 80.7319C337.297 80.6564 337.231 80.5674 337.194 80.4317L335.688 80.8355C335.833 81.3766 336.164 81.8035 336.648 82.0829L337.428 80.7319ZM337.194 80.4317C337.158 80.296 337.171 80.1857 337.247 80.0549L335.896 79.2749C335.616 79.7588 335.543 80.2943 335.688 80.8355L337.194 80.4317ZM337.247 80.0549C337.322 79.9241 337.411 79.8577 337.547 79.8213L337.143 78.3144C336.602 78.4594 336.175 78.791 335.896 79.2749L337.247 80.0549ZM337.547 79.8213C337.683 79.7849 337.793 79.798 337.924 79.8735L338.704 78.5225C338.22 78.2431 337.684 78.1694 337.143 78.3144L337.547 79.8213ZM337.924 79.8735C338.055 79.949 338.121 80.038 338.157 80.1737L339.664 79.7699C339.519 79.2288 339.188 78.8019 338.704 78.5225L337.924 79.8735ZM338.157 80.1737C338.181 80.2624 338.179 80.3376 338.156 80.4153L339.653 80.8551C339.758 80.4966 339.761 80.1295 339.664 79.7699L338.157 80.1737ZM338.152 80.4288C338.127 80.5199 338.084 80.597 338.016 80.6693L339.145 81.7456C339.39 81.4887 339.563 81.1843 339.657 80.8416L338.152 80.4288ZM338.019 80.6653C337.971 80.7151 337.907 80.7567 337.805 80.7841L338.209 82.291C338.564 82.1958 338.882 82.0174 339.141 81.7497L338.019 80.6653Z" fill="white" mask="url(#path-43-outside-1_1274_562)"/>
<path d="M165.05 170.01H167.6L171.74 177.015V170.01H173.735V180H171.215L167.045 172.95V180H165.05V170.01ZM179.326 180.225C178.546 180.225 177.856 180.055 177.256 179.715C176.666 179.375 176.206 178.9 175.876 178.29C175.546 177.67 175.381 176.955 175.381 176.145C175.381 175.335 175.541 174.625 175.861 174.015C176.191 173.395 176.651 172.915 177.241 172.575C177.841 172.235 178.531 172.065 179.311 172.065C180.091 172.065 180.776 172.235 181.366 172.575C181.966 172.905 182.426 173.375 182.746 173.985C183.076 174.595 183.241 175.3 183.241 176.1C183.241 176.91 183.076 177.63 182.746 178.26C182.426 178.88 181.966 179.365 181.366 179.715C180.776 180.055 180.096 180.225 179.326 180.225ZM179.311 178.395C179.851 178.395 180.281 178.19 180.601 177.78C180.931 177.36 181.096 176.81 181.096 176.13C181.096 175.45 180.931 174.91 180.601 174.51C180.281 174.1 179.851 173.895 179.311 173.895C178.771 173.895 178.336 174.1 178.006 174.51C177.686 174.91 177.526 175.45 177.526 176.13C177.526 176.81 177.686 177.36 178.006 177.78C178.336 178.19 178.771 178.395 179.311 178.395ZM194.022 179.985C193.532 180.135 192.992 180.21 192.402 180.21C191.422 180.21 190.557 179.995 189.807 179.565C189.057 179.135 188.472 178.53 188.052 177.75C187.642 176.97 187.437 176.075 187.437 175.065C187.437 174.045 187.642 173.145 188.052 172.365C188.462 171.585 189.042 170.98 189.792 170.55C190.542 170.12 191.412 169.905 192.402 169.905C193.382 169.905 194.247 170.115 194.997 170.535C195.747 170.955 196.327 171.555 196.737 172.335C197.147 173.105 197.352 173.995 197.352 175.005C197.352 175.765 197.232 176.47 196.992 177.12C196.762 177.76 196.432 178.31 196.002 178.77L197.397 179.49L197.172 181.545L194.022 179.985ZM192.507 176.94L194.052 177.75C194.392 177.47 194.652 177.1 194.832 176.64C195.022 176.18 195.117 175.655 195.117 175.065C195.117 174.415 195.002 173.845 194.772 173.355C194.552 172.855 194.232 172.475 193.812 172.215C193.402 171.945 192.932 171.81 192.402 171.81C191.872 171.81 191.397 171.945 190.977 172.215C190.567 172.485 190.247 172.87 190.017 173.37C189.797 173.86 189.687 174.425 189.687 175.065C189.687 176.035 189.932 176.815 190.422 177.405C190.912 177.995 191.562 178.295 192.372 178.305L192.507 176.94ZM201.744 180.21C200.924 180.21 200.279 179.96 199.809 179.46C199.339 178.96 199.104 178.275 199.104 177.405V172.275H201.219V177.06C201.219 177.47 201.319 177.79 201.519 178.02C201.719 178.24 201.989 178.35 202.329 178.35C202.669 178.35 202.994 178.24 203.304 178.02C203.624 177.8 203.889 177.505 204.099 177.135V172.275H206.214V180H204.099V178.98C203.809 179.37 203.474 179.675 203.094 179.895C202.724 180.105 202.274 180.21 201.744 180.21ZM211.804 180.225C210.554 180.225 209.569 179.865 208.849 179.145C208.139 178.425 207.784 177.425 207.784 176.145C207.784 175.315 207.939 174.595 208.249 173.985C208.559 173.365 208.994 172.89 209.554 172.56C210.124 172.23 210.789 172.065 211.549 172.065C212.669 172.065 213.529 172.425 214.129 173.145C214.729 173.865 215.029 174.905 215.029 176.265C215.029 176.495 215.024 176.665 215.014 176.775H209.914C210.014 177.305 210.244 177.71 210.604 177.99C210.964 178.26 211.449 178.395 212.059 178.395C212.429 178.395 212.814 178.35 213.214 178.26C213.614 178.16 213.964 178.03 214.264 177.87L214.609 179.565C214.209 179.775 213.764 179.935 213.274 180.045C212.794 180.165 212.304 180.225 211.804 180.225ZM213.004 175.185C212.974 174.755 212.824 174.415 212.554 174.165C212.284 173.905 211.924 173.775 211.474 173.775C211.044 173.775 210.689 173.9 210.409 174.15C210.139 174.4 209.969 174.745 209.899 175.185H213.004ZM218.846 180.225C218.356 180.225 217.881 180.175 217.421 180.075C216.971 179.975 216.586 179.84 216.266 179.67L216.461 177.87C216.801 178.08 217.176 178.25 217.586 178.38C217.996 178.51 218.381 178.575 218.741 178.575C219.081 178.575 219.366 178.515 219.596 178.395C219.826 178.265 219.941 178.08 219.941 177.84C219.941 177.65 219.861 177.505 219.701 177.405C219.541 177.295 219.236 177.16 218.786 177L218.381 176.85C217.951 176.69 217.601 176.54 217.331 176.4C217.061 176.25 216.816 176.025 216.596 175.725C216.376 175.425 216.266 175.03 216.266 174.54C216.266 173.76 216.556 173.155 217.136 172.725C217.726 172.285 218.491 172.065 219.431 172.065C220.171 172.065 220.951 172.21 221.771 172.5L221.486 174.285C221.196 174.115 220.866 173.98 220.496 173.88C220.136 173.77 219.796 173.715 219.476 173.715C219.146 173.715 218.881 173.77 218.681 173.88C218.491 173.99 218.396 174.15 218.396 174.36C218.396 174.56 218.476 174.71 218.636 174.81C218.796 174.91 219.066 175.025 219.446 175.155C219.746 175.265 219.921 175.33 219.971 175.35C220.391 175.52 220.741 175.685 221.021 175.845C221.301 176.005 221.546 176.245 221.756 176.565C221.966 176.875 222.071 177.275 222.071 177.765C222.071 178.585 221.776 179.2 221.186 179.61C220.596 180.02 219.816 180.225 218.846 180.225ZM226.477 180.225C225.757 180.225 225.197 180.045 224.797 179.685C224.407 179.315 224.212 178.795 224.212 178.125V174.09H223.012V172.275H224.212V170.625C224.922 170.505 225.622 170.415 226.312 170.355V172.275H228.262V174.09H226.312V177.735C226.312 177.945 226.372 178.105 226.492 178.215C226.622 178.325 226.802 178.38 227.032 178.38C227.312 178.38 227.632 178.315 227.992 178.185L228.457 179.775C227.817 180.075 227.157 180.225 226.477 180.225ZM230.855 169.05H233.27V171H230.855V169.05ZM229.685 178.185H231.125V174.09H229.685V172.275H233.24V178.185H234.53V180H229.685V178.185ZM239.356 180.225C238.576 180.225 237.886 180.055 237.286 179.715C236.696 179.375 236.236 178.9 235.906 178.29C235.576 177.67 235.411 176.955 235.411 176.145C235.411 175.335 235.571 174.625 235.891 174.015C236.221 173.395 236.681 172.915 237.271 172.575C237.871 172.235 238.561 172.065 239.341 172.065C240.121 172.065 240.806 172.235 241.396 172.575C241.996 172.905 242.456 173.375 242.776 173.985C243.106 174.595 243.271 175.3 243.271 176.1C243.271 176.91 243.106 177.63 242.776 178.26C242.456 178.88 241.996 179.365 241.396 179.715C240.806 180.055 240.126 180.225 239.356 180.225ZM239.341 178.395C239.881 178.395 240.311 178.19 240.631 177.78C240.961 177.36 241.126 176.81 241.126 176.13C241.126 175.45 240.961 174.91 240.631 174.51C240.311 174.1 239.881 173.895 239.341 173.895C238.801 173.895 238.366 174.1 238.036 174.51C237.716 174.91 237.556 175.45 237.556 176.13C237.556 176.81 237.716 177.36 238.036 177.78C238.366 178.19 238.801 178.395 239.341 178.395ZM244.838 172.275H246.908V173.61C247.228 173.08 247.598 172.69 248.018 172.44C248.438 172.19 248.928 172.065 249.488 172.065C250.318 172.065 250.968 172.315 251.438 172.815C251.908 173.305 252.143 173.99 252.143 174.87V180H250.028V175.2C250.028 174.8 249.928 174.49 249.728 174.27C249.528 174.04 249.258 173.925 248.918 173.925C248.518 173.925 248.138 174.075 247.778 174.375C247.418 174.675 247.143 175.055 246.953 175.515V180H244.838V172.275ZM256.258 180.225C255.768 180.225 255.293 180.175 254.833 180.075C254.383 179.975 253.998 179.84 253.678 179.67L253.873 177.87C254.213 178.08 254.588 178.25 254.998 178.38C255.408 178.51 255.793 178.575 256.153 178.575C256.493 178.575 256.778 178.515 257.008 178.395C257.238 178.265 257.353 178.08 257.353 177.84C257.353 177.65 257.273 177.505 257.113 177.405C256.953 177.295 256.648 177.16 256.198 177L255.793 176.85C255.363 176.69 255.013 176.54 254.743 176.4C254.473 176.25 254.228 176.025 254.008 175.725C253.788 175.425 253.678 175.03 253.678 174.54C253.678 173.76 253.968 173.155 254.548 172.725C255.138 172.285 255.903 172.065 256.843 172.065C257.583 172.065 258.363 172.21 259.183 172.5L258.898 174.285C258.608 174.115 258.278 173.98 257.908 173.88C257.548 173.77 257.208 173.715 256.888 173.715C256.558 173.715 256.293 173.77 256.093 173.88C255.903 173.99 255.808 174.15 255.808 174.36C255.808 174.56 255.888 174.71 256.048 174.81C256.208 174.91 256.478 175.025 256.858 175.155C257.158 175.265 257.333 175.33 257.383 175.35C257.803 175.52 258.153 175.685 258.433 175.845C258.713 176.005 258.958 176.245 259.168 176.565C259.378 176.875 259.483 177.275 259.483 177.765C259.483 178.585 259.188 179.2 258.598 179.61C258.008 180.02 257.228 180.225 256.258 180.225ZM167.765 192.01H170.375L174.08 202H171.83L171.02 199.72H167.09L166.325 202H164.105L167.765 192.01ZM170.375 197.86L169.025 194.035L167.72 197.86H170.375ZM173.802 194.305L176.112 194.095L177.822 199.66L179.457 194.275H181.722L179.007 202H176.532L173.802 194.305ZM184.92 202.225C184.12 202.225 183.485 201.885 183.015 201.205C182.545 200.525 182.31 199.6 182.31 198.43C182.31 197.01 182.67 195.93 183.39 195.19C184.11 194.44 185.145 194.065 186.495 194.065C187.255 194.065 188.145 194.185 189.165 194.425V202H187.155L187.2 200.77H187.14C186.88 201.24 186.56 201.6 186.18 201.85C185.81 202.1 185.39 202.225 184.92 202.225ZM185.37 200.38C185.68 200.38 185.985 200.215 186.285 199.885C186.585 199.555 186.865 199.115 187.125 198.565V196.045C186.805 195.955 186.485 195.91 186.165 195.91C185.565 195.91 185.11 196.115 184.8 196.525C184.5 196.935 184.35 197.54 184.35 198.34C184.35 198.97 184.44 199.47 184.62 199.84C184.8 200.2 185.05 200.38 185.37 200.38ZM192.008 191.05H194.423V193H192.008V191.05ZM190.838 200.185H192.278V196.09H190.838V194.275H194.393V200.185H195.683V202H190.838V200.185ZM196.739 200.185H198.104V192.85H196.814V191.05H200.219V200.185H201.584V202H196.739V200.185ZM205.032 202.225C204.232 202.225 203.597 201.885 203.127 201.205C202.657 200.525 202.422 199.6 202.422 198.43C202.422 197.01 202.782 195.93 203.502 195.19C204.222 194.44 205.257 194.065 206.607 194.065C207.367 194.065 208.257 194.185 209.277 194.425V202H207.267L207.312 200.77H207.252C206.992 201.24 206.672 201.6 206.292 201.85C205.922 202.1 205.502 202.225 205.032 202.225ZM205.482 200.38C205.792 200.38 206.097 200.215 206.397 199.885C206.697 199.555 206.977 199.115 207.237 198.565V196.045C206.917 195.955 206.597 195.91 206.277 195.91C205.677 195.91 205.222 196.115 204.912 196.525C204.612 196.935 204.462 197.54 204.462 198.34C204.462 198.97 204.552 199.47 204.732 199.84C204.912 200.2 205.162 200.38 205.482 200.38ZM214.202 202.225C213.402 202.225 212.457 202.105 211.367 201.865V191.05H213.452V195.025C214.042 194.385 214.767 194.065 215.627 194.065C216.507 194.065 217.197 194.4 217.697 195.07C218.197 195.73 218.447 196.655 218.447 197.845C218.447 199.265 218.082 200.35 217.352 201.1C216.622 201.85 215.572 202.225 214.202 202.225ZM214.427 200.38C215.047 200.38 215.517 200.175 215.837 199.765C216.167 199.355 216.332 198.755 216.332 197.965C216.332 197.315 216.222 196.81 216.002 196.45C215.792 196.09 215.492 195.91 215.102 195.91C214.782 195.91 214.482 196.025 214.202 196.255C213.922 196.475 213.672 196.8 213.452 197.23V200.245C213.762 200.335 214.087 200.38 214.427 200.38ZM219.386 200.185H220.751V192.85H219.461V191.05H222.866V200.185H224.231V202H219.386V200.185ZM229.089 202.225C227.839 202.225 226.854 201.865 226.134 201.145C225.424 200.425 225.069 199.425 225.069 198.145C225.069 197.315 225.224 196.595 225.534 195.985C225.844 195.365 226.279 194.89 226.839 194.56C227.409 194.23 228.074 194.065 228.834 194.065C229.954 194.065 230.814 194.425 231.414 195.145C232.014 195.865 232.314 196.905 232.314 198.265C232.314 198.495 232.309 198.665 232.299 198.775H227.199C227.299 199.305 227.529 199.71 227.889 199.99C228.249 200.26 228.734 200.395 229.344 200.395C229.714 200.395 230.099 200.35 230.499 200.26C230.899 200.16 231.249 200.03 231.549 199.87L231.894 201.565C231.494 201.775 231.049 201.935 230.559 202.045C230.079 202.165 229.589 202.225 229.089 202.225ZM230.289 197.185C230.259 196.755 230.109 196.415 229.839 196.165C229.569 195.905 229.209 195.775 228.759 195.775C228.329 195.775 227.974 195.9 227.694 196.15C227.424 196.4 227.254 196.745 227.184 197.185H230.289Z" fill="black"/>
</svg>
