<svg width="100" height="100" viewBox="0 0 100 100" fill="none" xmlns="http://www.w3.org/2000/svg">
<g clip-path="url(#clip0_440_1086)">
<path d="M0.800781 7.46094C0.273437 6.67969 0 5.74219 0 4.80469C0 2.14844 2.14844 0 4.80469 0H26.1523C28.3398 0 30.3906 1.15234 31.5039 3.02734L44.8828 25.3125C35.4688 26.5039 27.0508 30.8984 20.7812 37.4023L0.800781 7.46094ZM99.1797 7.46094L79.2188 37.4023C72.9492 30.8984 64.5312 26.5039 55.1172 25.3125L68.4961 3.02734C69.6289 1.15234 71.6602 0 73.8477 0H95.1953C97.8516 0 100 2.14844 100 4.80469C100 5.74219 99.7266 6.67969 99.1992 7.46094H99.1797ZM15.625 65.625C15.625 56.5082 19.2466 47.7648 25.6932 41.3182C32.1398 34.8716 40.8832 31.25 50 31.25C59.1168 31.25 67.8602 34.8716 74.3068 41.3182C80.7534 47.7648 84.375 56.5082 84.375 65.625C84.375 74.7418 80.7534 83.4852 74.3068 89.9318C67.8602 96.3784 59.1168 100 50 100C40.8832 100 32.1398 96.3784 25.6932 89.9318C19.2466 83.4852 15.625 74.7418 15.625 65.625ZM51.6406 47.0898C50.9766 45.7227 49.043 45.7227 48.3594 47.0898L43.9844 55.957C43.7109 56.5039 43.2031 56.875 42.6172 56.9531L32.8125 58.3789C31.3086 58.5938 30.7227 60.4297 31.7969 61.5039L38.8867 68.418C39.3164 68.8477 39.5117 69.4336 39.4141 70.0391L37.7344 79.7852C37.4805 81.2695 39.043 82.4219 40.3906 81.7188L49.1406 77.1094C49.668 76.8359 50.3125 76.8359 50.8398 77.1094L59.5898 81.7188C60.9375 82.4219 62.5 81.2891 62.2461 79.7852L60.5664 70.0391C60.4688 69.4531 60.6641 68.8477 61.0937 68.418L68.1836 61.5039C69.2773 60.4492 68.6719 58.6133 67.168 58.3789L57.3828 56.9531C56.7969 56.875 56.2695 56.4844 56.0156 55.957L51.6406 47.0898Z" fill="#34C38F"/>
</g>
<defs>
<clipPath id="clip0_440_1086">
<rect width="100" height="100" fill="white"/>
</clipPath>
</defs>
</svg>
